HIERARCHY
ROOT mixamorig:Hips
{
	OFFSET -0.000008 104.274872 1.554316
	CHANNELS 6 Xposition Yposition Zposition Xrotation Yrotation Zrotation
	JOINT mixamorig:Spine
	{
		OFFSET -0.000005 10.181595 0.131519
		CHANNELS 6 Xposition Yposition Zposition Xrotation Yrotation Zrotation
		JOINT mixamorig:Spine1
		{
			OFFSET -0.000000 9.893959 -1.470707
			CHANNELS 6 Xposition Yposition Zposition Xrotation Yrotation Zrotation
			JOINT mixamorig:Spine2
			{
				OFFSET -0.000000 9.220757 -1.370641
				CHANNELS 6 Xposition Yposition Zposition Xrotation Yrotation Zrotation
				JOINT mixamorig:Neck
				{
					OFFSET 0.000001 16.740417 -2.049036
					CHANNELS 6 Xposition Yposition Zposition Xrotation Yrotation Zrotation
					JOINT mixamorig:Head
					{
						OFFSET 0.000000 9.617874 1.685006
						CHANNELS 6 Xposition Yposition Zposition Xrotation Yrotation Zrotation
						JOINT mixamorig:HeadTop_End
						{
							OFFSET 0.000002 22.037354 7.501101
							CHANNELS 6 Xposition Yposition Zposition Xrotation Yrotation Zrotation
							End Site
							{
								OFFSET 0.000168 2310.654297 -282.823242
							}
						}
					}
				}
				JOINT mixamorig:RightShoulder
				{
					OFFSET -4.569970 11.014908 -2.160885
					CHANNELS 6 Xposition Yposition Zposition Xrotation Yrotation Zrotation
					JOINT mixamorig:RightArm
					{
						OFFSET -10.592851 -0.524811 -2.232101
						CHANNELS 6 Xposition Yposition Zposition Xrotation Yrotation Zrotation
						JOINT mixamorig:RightForeArm
						{
							OFFSET -27.841511 0.000031 -0.000004
							CHANNELS 6 Xposition Yposition Zposition Xrotation Yrotation Zrotation
							JOINT mixamorig:RightHand
							{
								OFFSET -28.328831 -0.000015 0.000015
								CHANNELS 6 Xposition Yposition Zposition Xrotation Yrotation Zrotation
								JOINT mixamorig:RightHandThumb1
								{
									OFFSET -2.464806 -1.573990 2.681852
									CHANNELS 6 Xposition Yposition Zposition Xrotation Yrotation Zrotation
									JOINT mixamorig:RightHandThumb2
									{
										OFFSET -3.215179 -1.872803 1.924282
										CHANNELS 6 Xposition Yposition Zposition Xrotation Yrotation Zrotation
										JOINT mixamorig:RightHandThumb3
										{
											OFFSET -2.654831 -1.527969 1.512609
											CHANNELS 6 Xposition Yposition Zposition Xrotation Yrotation Zrotation
											JOINT mixamorig:RightHandThumb4
											{
												OFFSET -2.018814 -1.152008 1.108052
												CHANNELS 6 Xposition Yposition Zposition Xrotation Yrotation Zrotation
												End Site
												{
													OFFSET -188.809540 -114.533607 132.431396
												}
											}
										}
									}
								}
								JOINT mixamorig:RightHandIndex1
								{
									OFFSET -9.108284 -0.517868 2.259835
									CHANNELS 6 Xposition Yposition Zposition Xrotation Yrotation Zrotation
									JOINT mixamorig:RightHandIndex2
									{
										OFFSET -3.699989 0.000000 0.001215
										CHANNELS 6 Xposition Yposition Zposition Xrotation Yrotation Zrotation
										JOINT mixamorig:RightHandIndex3
										{
											OFFSET -2.850006 0.000031 -0.000522
											CHANNELS 6 Xposition Yposition Zposition Xrotation Yrotation Zrotation
											JOINT mixamorig:RightHandIndex4
											{
												OFFSET -2.772186 -0.000015 -0.000020
												CHANNELS 6 Xposition Yposition Zposition Xrotation Yrotation Zrotation
												End Site
												{
													OFFSET -277.218445 0.000000 -0.050231
												}
											}
										}
									}
								}
								JOINT mixamorig:RightHandMiddle1
								{
									OFFSET -9.532516 -0.000031 -0.000023
									CHANNELS 6 Xposition Yposition Zposition Xrotation Yrotation Zrotation
									JOINT mixamorig:RightHandMiddle2
									{
										OFFSET -3.700005 -0.000015 0.003713
										CHANNELS 6 Xposition Yposition Zposition Xrotation Yrotation Zrotation
										JOINT mixamorig:RightHandMiddle3
										{
											OFFSET -2.949974 0.000015 -0.002054
											CHANNELS 6 Xposition Yposition Zposition Xrotation Yrotation Zrotation
											JOINT mixamorig:RightHandMiddle4
											{
												OFFSET -2.946640 0.000000 -0.000156
												CHANNELS 6 Xposition Yposition Zposition Xrotation Yrotation Zrotation
												End Site
												{
													OFFSET -294.664337 0.000000 -0.113670
												}
											}
										}
									}
								}
								JOINT mixamorig:RightHandRing1
								{
									OFFSET -9.103600 -0.043076 -1.865134
									CHANNELS 6 Xposition Yposition Zposition Xrotation Yrotation Zrotation
									JOINT mixamorig:RightHandRing2
									{
										OFFSET -3.379288 0.000000 -0.001055
										CHANNELS 6 Xposition Yposition Zposition Xrotation Yrotation Zrotation
										JOINT mixamorig:RightHandRing3
										{
											OFFSET -2.889687 -0.000015 0.000379
											CHANNELS 6 Xposition Yposition Zposition Xrotation Yrotation Zrotation
											JOINT mixamorig:RightHandRing4
											{
												OFFSET -2.638809 -0.000015 0.000941
												CHANNELS 6 Xposition Yposition Zposition Xrotation Yrotation Zrotation
												End Site
												{
													OFFSET -263.880371 0.000000 0.516020
												}
											}
										}
									}
								}
								JOINT mixamorig:RightHandPinky1
								{
									OFFSET -8.076683 -0.486710 -3.806280
									CHANNELS 6 Xposition Yposition Zposition Xrotation Yrotation Zrotation
									JOINT mixamorig:RightHandPinky2
									{
										OFFSET -3.600014 -0.000015 -0.003747
										CHANNELS 6 Xposition Yposition Zposition Xrotation Yrotation Zrotation
										JOINT mixamorig:RightHandPinky3
										{
											OFFSET -2.099983 0.000000 -0.005739
											CHANNELS 6 Xposition Yposition Zposition Xrotation Yrotation Zrotation
											JOINT mixamorig:RightHandPinky4
											{
												OFFSET -2.115768 -0.000031 -0.003680
												CHANNELS 6 Xposition Yposition Zposition Xrotation Yrotation Zrotation
												End Site
												{
													OFFSET -211.577087 0.000000 -0.350686
												}
											}
										}
									}
								}
							}
						}
					}
				}
				JOINT mixamorig:LeftShoulder
				{
					OFFSET 4.570447 11.014725 -2.160855
					CHANNELS 6 Xposition Yposition Zposition Xrotation Yrotation Zrotation
					JOINT mixamorig:LeftArm
					{
						OFFSET 10.592371 -0.524597 -2.232119
						CHANNELS 6 Xposition Yposition Zposition Xrotation Yrotation Zrotation
						JOINT mixamorig:LeftForeArm
						{
							OFFSET 27.841532 -0.000031 0.000026
							CHANNELS 6 Xposition Yposition Zposition Xrotation Yrotation Zrotation
							JOINT mixamorig:LeftHand
							{
								OFFSET 28.328846 -0.000061 0.000022
								CHANNELS 6 Xposition Yposition Zposition Xrotation Yrotation Zrotation
								JOINT mixamorig:LeftHandThumb1
								{
									OFFSET 2.466141 -1.576172 2.681732
									CHANNELS 6 Xposition Yposition Zposition Xrotation Yrotation Zrotation
									JOINT mixamorig:LeftHandThumb2
									{
										OFFSET 3.217812 -1.872070 1.916482
										CHANNELS 6 Xposition Yposition Zposition Xrotation Yrotation Zrotation
										JOINT mixamorig:LeftHandThumb3
										{
											OFFSET 2.656029 -1.528778 1.514513
											CHANNELS 6 Xposition Yposition Zposition Xrotation Yrotation Zrotation
											JOINT mixamorig:LeftHandThumb4
											{
												OFFSET 2.020889 -1.154053 1.115139
												CHANNELS 6 Xposition Yposition Zposition Xrotation Yrotation Zrotation
												End Site
												{
													OFFSET 190.885437 -115.081749 130.048782
												}
											}
										}
									}
								}
								JOINT mixamorig:LeftHandIndex1
								{
									OFFSET 9.109314 -0.518021 2.259871
									CHANNELS 6 Xposition Yposition Zposition Xrotation Yrotation Zrotation
									JOINT mixamorig:LeftHandIndex2
									{
										OFFSET 3.699989 0.000000 -0.000322
										CHANNELS 6 Xposition Yposition Zposition Xrotation Yrotation Zrotation
										JOINT mixamorig:LeftHandIndex3
										{
											OFFSET 2.850006 0.000000 0.000352
											CHANNELS 6 Xposition Yposition Zposition Xrotation Yrotation Zrotation
											JOINT mixamorig:LeftHandIndex4
											{
												OFFSET 2.774864 -0.000031 -0.000027
												CHANNELS 6 Xposition Yposition Zposition Xrotation Yrotation Zrotation
												End Site
												{
													OFFSET 277.486267 0.000000 -0.009857
												}
											}
										}
									}
								}
								JOINT mixamorig:LeftHandMiddle1
								{
									OFFSET 9.533394 0.000061 0.000044
									CHANNELS 6 Xposition Yposition Zposition Xrotation Yrotation Zrotation
									JOINT mixamorig:LeftHandMiddle2
									{
										OFFSET 3.699989 -0.000015 -0.000231
										CHANNELS 6 Xposition Yposition Zposition Xrotation Yrotation Zrotation
										JOINT mixamorig:LeftHandMiddle3
										{
											OFFSET 2.949997 -0.000015 -0.000059
											CHANNELS 6 Xposition Yposition Zposition Xrotation Yrotation Zrotation
											JOINT mixamorig:LeftHandMiddle4
											{
												OFFSET 2.952896 0.000031 0.000063
												CHANNELS 6 Xposition Yposition Zposition Xrotation Yrotation Zrotation
												End Site
												{
													OFFSET 295.289337 0.000000 0.022810
												}
											}
										}
									}
								}
								JOINT mixamorig:LeftHandRing1
								{
									OFFSET 9.104523 -0.042999 -1.865074
									CHANNELS 6 Xposition Yposition Zposition Xrotation Yrotation Zrotation
									JOINT mixamorig:LeftHandRing2
									{
										OFFSET 3.150009 -0.000031 0.000043
										CHANNELS 6 Xposition Yposition Zposition Xrotation Yrotation Zrotation
										JOINT mixamorig:LeftHandRing3
										{
											OFFSET 2.949982 -0.000015 0.000040
											CHANNELS 6 Xposition Yposition Zposition Xrotation Yrotation Zrotation
											JOINT mixamorig:LeftHandRing4
											{
												OFFSET 2.644348 0.000000 0.000057
												CHANNELS 6 Xposition Yposition Zposition Xrotation Yrotation Zrotation
												End Site
												{
													OFFSET 264.434631 0.000000 0.012105
												}
											}
										}
									}
								}
								JOINT mixamorig:LeftHandPinky1
								{
									OFFSET 8.077789 -0.486847 -3.806259
									CHANNELS 6 Xposition Yposition Zposition Xrotation Yrotation Zrotation
									JOINT mixamorig:LeftHandPinky2
									{
										OFFSET 3.599953 0.000031 0.014727
										CHANNELS 6 Xposition Yposition Zposition Xrotation Yrotation Zrotation
										JOINT mixamorig:LeftHandPinky3
										{
											OFFSET 2.100021 0.000015 0.007705
											CHANNELS 6 Xposition Yposition Zposition Xrotation Yrotation Zrotation
											JOINT mixamorig:LeftHandPinky4
											{
												OFFSET 2.125504 0.000031 0.007517
												CHANNELS 6 Xposition Yposition Zposition Xrotation Yrotation Zrotation
												End Site
												{
													OFFSET 212.550781 0.000000 0.625752
												}
											}
										}
									}
								}
							}
						}
					}
				}
			}
		}
	}
	JOINT mixamorig:RightUpLeg
	{
		OFFSET -8.207787 -6.751648 -1.599560
		CHANNELS 6 Xposition Yposition Zposition Xrotation Yrotation Zrotation
		JOINT mixamorig:RightLeg
		{
			OFFSET -0.000002 -44.370117 0.345942
			CHANNELS 6 Xposition Yposition Zposition Xrotation Yrotation Zrotation
			JOINT mixamorig:RightFoot
			{
				OFFSET 0.000003 -44.423679 -3.043532
				CHANNELS 6 Xposition Yposition Zposition Xrotation Yrotation Zrotation
				JOINT mixamorig:RightToeBase
				{
					OFFSET -0.000002 -8.728671 10.710558
					CHANNELS 6 Xposition Yposition Zposition Xrotation Yrotation Zrotation
					JOINT mixamorig:RightToe_End
					{
						OFFSET -0.000001 -0.000679 9.278119
						CHANNELS 6 Xposition Yposition Zposition Xrotation Yrotation Zrotation
						End Site
						{
							OFFSET 0.000000 -0.067690 927.812134
						}
					}
				}
			}
		}
	}
	JOINT mixamorig:LeftUpLeg
	{
		OFFSET 8.207793 -6.751686 -1.599556
		CHANNELS 6 Xposition Yposition Zposition Xrotation Yrotation Zrotation
		JOINT mixamorig:LeftLeg
		{
			OFFSET -0.000004 -44.370014 0.346954
			CHANNELS 6 Xposition Yposition Zposition Xrotation Yrotation Zrotation
			JOINT mixamorig:LeftFoot
			{
				OFFSET -0.000001 -44.423672 -3.044401
				CHANNELS 6 Xposition Yposition Zposition Xrotation Yrotation Zrotation
				JOINT mixamorig:LeftToeBase
				{
					OFFSET -0.000002 -8.728669 10.710558
					CHANNELS 6 Xposition Yposition Zposition Xrotation Yrotation Zrotation
					JOINT mixamorig:LeftToe_End
					{
						OFFSET -0.000003 -0.000679 9.278133
						CHANNELS 6 Xposition Yposition Zposition Xrotation Yrotation Zrotation
						End Site
						{
							OFFSET 0.000000 -0.068021 927.813477
						}
					}
				}
			}
		}
	}
}
MOTION
Frames: 3
Frame Time: 0.033333
0.000006 104.270477 1.554256 0.000010 0.000003 -0.000113 -0.000005 10.181587 0.131522 0.000001 -0.000003 0.000084 -0.000000 9.893967 -1.470711 0.000001 0.000000 -0.000000 -0.000000 9.220802 -1.370642 0.000000 -0.000000 -0.000000 0.000001 16.740433 -2.049030 0.000000 -0.000000 -0.000000 0.000000 9.617859 1.685014 0.000000 0.000000 0.000000 0.000002 22.037384 7.501101 0.000000 -0.000000 0.000000 -4.569968 11.014880 -2.160881 0.000008 0.000001 -0.000038 -10.592770 -0.524848 -2.231730 76.321360 68.381258 -56.191013 -27.841484 0.000005 0.000583 38.005703 103.917865 -47.512408 -28.328833 0.000021 0.000030 -0.000318 -0.000045 0.000008 -2.464361 -1.573904 2.682317 -34.049593 -137.792687 12.351598 -3.214807 -1.872477 1.924661 125.171987 -3.934777 139.427233 -2.654739 -1.527643 1.512984 131.011020 24.384440 90.366866 -2.018826 -1.152031 1.108063 -0.000006 -0.000001 0.000002 -9.108360 -0.517801 2.260370 -206.153086 20.943547 -77.199859 -3.700019 0.000039 0.001770 -205.798941 19.951642 -74.952112 -2.850082 0.000148 -0.000013 -207.677065 15.590392 -58.120928 -2.772167 -0.000003 -0.000011 0.000003 -0.000001 0.000002 -9.532570 0.000050 0.000518 -27.113471 162.175124 -246.634443 -3.700052 0.000069 0.004250 -205.296512 14.937115 -60.161700 -2.950047 0.000180 -0.001561 152.602340 11.933021 -46.386174 -2.946623 0.000014 -0.000144 0.000001 -0.000002 0.000002 -9.103651 -0.042974 -1.864591 -25.817891 163.687601 -243.854364 -3.379330 0.000136 -0.000528 152.334898 9.659692 -37.955317 -2.889753 0.000188 0.000900 -208.647704 7.304600 -28.261241 -2.638821 -0.000026 0.000934 0.000001 0.000002 0.000001 -8.076712 -0.486620 -3.805738 -24.123718 161.424636 -254.225733 -3.600029 0.000096 -0.003222 157.506853 8.047444 -37.069243 -2.100007 0.000145 -0.005213 153.185884 5.371766 -21.295574 -2.115771 -0.000039 -0.003676 0.000002 -0.000002 -0.000005 4.570446 11.014691 -2.160851 -0.000018 0.000010 -0.000021 10.592515 -0.524541 -2.232373 57.839504 -66.644096 39.923733 27.841772 -0.000057 -0.000116 216.849436 -76.774092 225.614249 28.328838 -0.000030 0.000019 0.000021 -0.000089 0.000000 2.466051 -1.576201 2.681884 -9.302249 121.434138 -40.320536 3.217748 -1.872058 1.916528 213.450775 56.016629 -268.185957 2.656027 -1.528806 1.514614 225.538857 46.134605 75.218585 2.020906 -1.154082 1.115154 0.000001 0.000002 0.000002 9.109085 -0.517971 2.259978 -172.222960 -20.636558 220.914928 3.699773 0.000028 -0.000207 -173.213597 -25.304647 -150.365412 2.849756 0.000132 0.000479 -168.941109 -23.011303 -129.132321 2.774888 -0.000032 -0.000027 -0.000000 0.000002 -0.000000 9.533142 0.000112 0.000147 -174.223564 -15.744786 220.062193 3.699742 0.000059 -0.000119 -173.068825 -20.928244 -143.699544 2.949734 0.000118 0.000070 -167.394754 -20.505063 -117.177059 2.952861 -0.000030 0.000060 -0.000000 0.000002 -0.000001 9.104285 -0.042952 -1.864980 -173.681438 -15.219862 224.899415 3.149680 0.000359 0.000150 -172.983311 -6.870197 271.211458 2.949699 0.000416 0.000164 -166.557537 -8.044445 -61.649813 2.644340 0.000045 0.000055 -0.000003 0.000000 0.000000 8.077515 -0.486744 -3.806149 -171.279192 -14.811508 -118.100951 3.599932 0.000442 0.014833 -167.682237 -0.607017 -9.201877 2.099930 0.000424 0.007835 -162.486171 -3.233789 -22.780645 2.125511 -0.000019 0.007511 -0.000000 0.000001 0.000000 -8.207786 -6.751667 -1.599560 -0.077001 -0.000003 0.000080 -0.000002 -44.370110 0.345938 0.153719 -0.000000 -0.000000 0.000000 -44.423679 -3.043532 -0.076700 0.000000 -0.000002 -0.000006 -8.728667 10.710559 -0.000009 -0.000000 -0.000000 -0.000001 -0.000679 9.278123 0.000000 -0.000000 -0.000000 8.207792 -6.751710 -1.599556 -0.074518 -0.000003 0.000081 -0.000002 -44.370014 0.346960 0.148822 0.000002 0.000000 -0.000001 -44.423664 -3.044403 -0.074314 0.000000 -0.000002 -0.000004 -8.728671 10.710558 0.000007 -0.000000 -0.000000 0.000000 -0.000680 9.278137 -0.000000 0.000000 -0.000001 
0.000006 104.270477 1.554256 0.000010 0.000003 -0.000113 -0.000005 10.181587 0.131522 0.000001 -0.000003 0.000084 -0.000000 9.893967 -1.470711 0.000001 0.000000 -0.000000 -0.000000 9.220802 -1.370642 0.000000 -0.000000 -0.000000 0.000001 16.740433 -2.049030 0.000000 -0.000000 -0.000000 0.000000 9.617859 1.685014 0.000000 0.000000 0.000000 0.000002 22.037384 7.501101 0.000000 -0.000000 0.000000 -4.569968 11.014880 -2.160881 0.000008 0.000001 -0.000038 -10.592772 -0.524844 -2.231737 76.563292 68.019812 -56.074426 -27.841478 -0.000003 0.000583 38.499960 104.428627 -48.497208 -28.328829 0.000007 0.000013 -0.000320 -0.000044 0.000007 -2.464356 -1.573919 2.682277 -34.375594 -136.435802 11.377784 -3.214788 -1.872459 1.924649 124.849096 -5.417678 139.466780 -2.654679 -1.527620 1.512987 127.747514 18.029505 103.853279 -2.018838 -1.151996 1.108065 -0.000005 -0.000004 0.000000 -9.108357 -0.517795 2.260361 -205.562384 20.811206 -78.162793 -3.700026 0.000056 0.001753 -205.580484 19.635322 -74.535860 -2.850089 0.000159 0.000008 -207.862833 15.598738 -57.809280 -2.772170 -0.000018 -0.000015 -0.000000 -0.000001 -0.000001 -9.532586 0.000043 0.000502 -26.434586 163.569561 -243.737322 -3.700057 0.000105 0.004246 -204.873614 14.011967 -57.823145 -2.950064 0.000156 -0.001532 153.404218 11.480009 -46.048336 -2.946619 0.000012 -0.000153 -0.000003 0.000002 0.000000 -9.103665 -0.042953 -1.864615 -25.423467 165.045415 -240.196880 -3.379311 0.000178 -0.000544 153.254050 7.756797 -31.908728 -2.889752 0.000200 0.000885 -207.571143 5.936397 -24.060533 -2.638794 -0.000015 0.000928 -0.000001 0.000003 -0.000003 -8.076709 -0.486589 -3.805736 -24.754658 163.546462 -246.118545 -3.600031 0.000147 -0.003235 155.782763 4.845034 -20.634515 -2.100020 0.000193 -0.005222 151.880048 2.961091 -10.909573 -2.115772 -0.000055 -0.003673 0.000002 0.000001 -0.000005 4.570446 11.014691 -2.160851 -0.000018 0.000010 -0.000021 10.592514 -0.524564 -2.232377 57.635001 -66.194573 39.456053 27.841772 -0.000054 -0.000121 217.040012 -76.081088 226.354969 28.328823 -0.000030 0.000016 0.000018 -0.000090 0.000001 2.466070 -1.576184 2.681886 -1.433800 119.103090 -48.700133 3.217726 -1.872064 1.916521 197.214213 55.032986 -251.774488 2.656005 -1.528810 1.514596 213.404507 47.109351 87.245196 2.020891 -1.154071 1.115149 -0.000001 0.000001 0.000002 9.109210 -0.518046 2.259953 -181.048357 -19.421088 173.818001 3.699830 -0.000029 -0.000229 -178.694647 -24.641342 -173.967637 2.849766 0.000086 0.000467 -171.035518 -22.423957 -136.849042 2.774889 -0.000030 -0.000028 -0.000002 0.000000 0.000003 9.533308 0.000024 0.000128 -181.779269 -14.612169 166.126894 3.699777 0.000005 -0.000131 -177.374521 -18.994193 -164.412065 2.949729 0.000119 0.000060 -169.436339 -18.433388 -120.651453 2.952879 -0.000017 0.000065 -0.000000 0.000001 -0.000002 9.104424 -0.043041 -1.864992 -180.111078 -15.240961 179.181352 3.149643 0.000120 0.000133 -177.558158 -8.375940 212.469372 2.949657 0.000393 0.000156 -169.757849 -8.628172 -80.180103 2.644326 0.000015 0.000055 -0.000005 -0.000001 -0.000000 8.077603 -0.486847 -3.806158 -177.504008 -17.784549 -161.679348 3.599660 0.000385 0.014815 -174.267127 -4.356701 -75.633362 2.099823 0.000412 0.007814 -170.188985 -3.720731 -43.887654 2.125512 -0.000031 0.007516 0.000000 -0.000002 -0.000000 -8.207786 -6.751667 -1.599560 -0.077001 -0.000003 0.000080 -0.000002 -44.370110 0.345938 0.153719 -0.000000 -0.000000 0.000000 -44.423679 -3.043532 -0.076700 0.000000 -0.000002 -0.000006 -8.728667 10.710559 -0.000009 -0.000000 -0.000000 -0.000001 -0.000679 9.278123 0.000000 -0.000000 -0.000000 8.207792 -6.751710 -1.599556 -0.074518 -0.000003 0.000081 -0.000002 -44.370014 0.346960 0.148822 0.000002 0.000000 -0.000001 -44.423664 -3.044403 -0.074314 0.000000 -0.000002 -0.000004 -8.728671 10.710558 0.000007 -0.000000 -0.000000 0.000000 -0.000680 9.278137 -0.000000 0.000000 -0.000001 
0.000006 104.270477 1.554256 0.000010 0.000003 -0.000113 -0.000005 10.181587 0.131522 0.000001 -0.000003 0.000084 -0.000000 9.893967 -1.470711 0.000001 0.000000 -0.000000 -0.000000 9.220802 -1.370642 0.000000 -0.000000 -0.000000 0.000001 16.740433 -2.049030 0.000000 -0.000000 -0.000000 0.000000 9.617859 1.685014 0.000000 0.000000 0.000000 0.000002 22.037384 7.501101 0.000000 -0.000000 0.000000 -4.569968 11.014880 -2.160881 0.000008 0.000001 -0.000038 -10.592770 -0.524845 -2.231735 76.728740 68.286674 -56.454929 -27.841484 0.000010 0.000580 39.373274 103.917640 -49.146469 -28.328829 -0.000008 0.000027 -0.000318 -0.000045 0.000007 -2.464373 -1.573977 2.682287 -22.687684 -129.889229 26.777659 -3.214766 -1.872517 1.924667 125.583314 -11.720430 145.303218 -2.654573 -1.527620 1.512984 125.306896 8.559194 118.067306 -2.018831 -1.151993 1.108052 -0.000004 -0.000002 0.000004 -9.108340 -0.517819 2.260366 -204.300753 19.890800 -78.511174 -3.699978 0.000013 0.001785 -200.678457 19.545070 -86.591533 -2.850059 0.000119 0.000008 -203.401463 15.825268 -67.726373 -2.772160 -0.000001 -0.000017 0.000001 0.000000 0.000002 -9.532558 0.000024 0.000524 -22.783011 163.564480 -251.915518 -3.700042 0.000045 0.004269 -200.307728 15.164897 -72.742655 -2.950045 0.000106 -0.001522 158.276807 12.357099 -58.826029 -2.946638 -0.000002 -0.000156 -0.000005 0.000003 -0.000004 -9.103638 -0.043019 -1.864584 -21.425414 164.094421 -252.674597 -3.379307 0.000094 -0.000505 158.329987 9.118215 -45.331330 -2.889749 0.000112 0.000916 -200.138927 7.048338 -38.532943 -2.638810 0.000008 0.000929 -0.000002 0.000001 0.000000 -8.076663 -0.486668 -3.805716 -18.834083 161.415743 -268.492032 -3.600037 0.000098 -0.003202 161.205005 6.375127 -34.935239 -2.100025 0.000141 -0.005192 159.940545 4.534487 -23.916705 -2.115777 -0.000040 -0.003672 0.000001 -0.000003 -0.000005 4.570446 11.014691 -2.160851 -0.000018 0.000010 -0.000021 10.592512 -0.524555 -2.232379 57.672820 -66.390477 39.620756 27.841770 -0.000048 -0.000122 216.942244 -77.072497 225.505908 28.328829 -0.000028 0.000023 0.000020 -0.000090 0.000001 2.466106 -1.576192 2.681881 14.728514 120.458145 -68.144415 3.217691 -1.872063 1.916537 176.935518 51.234803 -230.017549 2.655943 -1.528826 1.514610 194.161555 47.720052 108.271202 2.020887 -1.154070 1.115152 0.000003 0.000002 0.000004 9.109366 -0.518016 2.259929 -189.656294 -19.165159 126.769458 3.700004 -0.000022 -0.000268 -188.752455 -21.485219 -223.846432 2.850025 0.000011 0.000419 -188.125990 -18.650527 -226.791623 2.774870 -0.000031 -0.000018 -0.000001 0.000000 0.000001 9.533448 0.000062 0.000109 -189.054432 -15.961667 121.027264 3.700046 -0.000004 -0.000178 -189.477261 -17.008728 -238.023131 2.950035 -0.000021 -0.000007 -188.620236 -17.677598 -231.697830 2.952859 -0.000015 0.000055 0.000001 -0.000000 -0.000001 9.104529 -0.043041 -1.865005 -184.669628 -16.061405 147.775514 3.150037 0.000008 0.000108 -188.696543 -10.190548 99.104645 2.949875 -0.000053 0.000113 -185.314739 -10.674232 -232.818609 2.644331 0.000066 0.000055 0.000002 0.000003 0.000001 8.077680 -0.486907 -3.806180 -181.510255 -20.447302 -185.648121 3.599803 0.000013 0.014808 -181.576959 -11.103996 -191.431474 2.099858 -0.000053 0.007777 -182.384807 -10.583747 -200.381440 2.125508 -0.000011 0.007514 0.000002 -0.000002 0.000002 -8.207786 -6.751667 -1.599560 -0.077001 -0.000003 0.000080 -0.000002 -44.370110 0.345938 0.153719 -0.000000 -0.000000 0.000000 -44.423679 -3.043532 -0.076700 0.000000 -0.000002 -0.000006 -8.728667 10.710559 -0.000009 -0.000000 -0.000000 -0.000001 -0.000679 9.278123 0.000000 -0.000000 -0.000000 8.207792 -6.751710 -1.599556 -0.074518 -0.000003 0.000081 -0.000002 -44.370014 0.346960 0.148822 0.000002 0.000000 -0.000001 -44.423664 -3.044403 -0.074314 0.000000 -0.000002 -0.000004 -8.728671 10.710558 0.000007 -0.000000 -0.000000 0.000000 -0.000680 9.278137 -0.000000 0.000000 -0.000001 
